<svg xmlns="http://www.w3.org/2000/svg" version="1.1" xmlns:xlink="http://www.w3.org/1999/xlink" xmlns:svgjs="http://svgjs.dev/svgjs" width="1440" height="560" preserveAspectRatio="none" viewBox="0 0 1440 560"><g mask="url(&quot;#SvgjsMask1000&quot;)" fill="none"><rect width="1440" height="560" x="0" y="0" fill="#1e3266"></rect><path d="M1512 560L0 560 L0 285.05Q68.13 281.18, 72 349.31Q81.76 287.07, 144 296.84Q185.56 266.39, 216 307.95Q265.94 285.89, 288 335.83Q357.72 285.55, 408 355.27Q449.64 324.91, 480 366.56Q499.3 265.86, 600 285.16Q670.87 236.03, 720 306.9Q772.2 287.1, 792 339.3Q858.21 285.51, 912 351.73Q953.34 321.07, 984 362.41Q991.42 297.83, 1056 305.25Q1085.23 262.48, 1128 291.71Q1193.23 284.94, 1200 350.17Q1240.59 270.76, 1320 311.35Q1341.54 260.89, 1392 282.44Q1461.08 231.51, 1512 300.59z" fill="#182f5d"></path><path d="M1560 560L0 560 L0 430.97Q18.67 377.64, 72 396.32Q139.68 344, 192 411.67Q267.87 367.54, 312 443.41Q323.63 383.04, 384 394.67Q406.63 345.3, 456 367.92Q509.25 301.18, 576 354.43Q682 340.44, 696 446.44Q722.79 353.24, 816 380.03Q844.78 336.81, 888 365.59Q945.36 350.95, 960 408.31Q968.25 344.56, 1032 352.81Q1074.79 323.6, 1104 366.38Q1154.07 344.45, 1176 394.52Q1229.43 375.95, 1248 429.39Q1313.88 375.27, 1368 441.16Q1377.5 378.66, 1440 388.16Q1487.66 315.83, 1560 363.49z" fill="#25467d"></path><path d="M1488 560L0 560 L0 427.84Q90 397.84, 120 487.84Q132.19 428.03, 192 440.22Q218.98 395.2, 264 422.17Q322.05 408.22, 336 466.26Q408.93 419.19, 456 492.11Q494.58 410.69, 576 449.27Q666.41 419.68, 696 510.09Q737.11 431.19, 816 472.3Q857.02 393.32, 936 434.34Q979.47 405.81, 1008 449.28Q1067.38 436.66, 1080 496.04Q1086.86 430.89, 1152 437.75Q1182.19 395.94, 1224 426.14Q1283.71 413.86, 1296 473.57Q1370.21 427.78, 1416 502Q1416.97 430.97, 1488 431.94z" fill="#356cb1"></path><path d="M1488 560L0 560 L0 498.42Q71.75 450.17, 120 521.92Q174.06 503.98, 192 558.04Q225.94 471.98, 312 505.92Q353.3 475.22, 384 516.52Q455.26 467.78, 504 539.05Q583.6 498.64, 624 578.24Q626.39 508.63, 696 511.03Q746.26 441.29, 816 491.55Q923.44 479, 936 586.44Q957.16 535.61, 1008 556.77Q1046.09 474.86, 1128 512.95Q1217.77 482.72, 1248 572.49Q1292.47 496.97, 1368 541.44Q1404.03 457.47, 1488 493.5z" fill="white"></path></g><defs><mask id="SvgjsMask1000"><rect width="1440" height="560" fill="#ffffff"></rect></mask></defs></svg>