<svg xmlns="http://www.w3.org/2000/svg" viewBox="0 0 512 512" id="education-funding">
  <path fill="#fdae02" d="m111.826,340.635h139.563c11.549,0,20.926,9.376,20.926,20.926h0c0,11.55-9.377,20.926-20.926,20.926H111.826c-11.549,0-20.925-9.376-20.925-20.925h0c0-11.55,9.376-20.926,20.925-20.926Z"></path>
  <path fill="#f0a000" fill-rule="evenodd" d="m92.913,370.487c3.365,7.077,10.592,12,18.914,12h139.562c8.322,0,15.548-4.923,18.913-12H92.913Z"></path>
  <path fill="#fdae02" d="m111.826,382.487h139.563c11.549,0,20.926,9.376,20.926,20.926h0c0,11.55-9.376,20.926-20.925,20.926H111.826c-11.549,0-20.925-9.376-20.925-20.925h0c0-11.55,9.376-20.927,20.925-20.927Z"></path>
  <path fill="#f0a000" fill-rule="evenodd" d="m251.389,424.339H111.827c-8.322,0-15.548-4.923-18.913-12h177.389c-3.365,7.077-10.591,12-18.913,12Z"></path>
  <path fill="#fdae02" d="m111.826,424.339h139.563c11.549,0,20.925,9.376,20.925,20.925h0c0,11.55-9.377,20.926-20.926,20.926H111.826c-11.549,0-20.925-9.376-20.925-20.925h0c0-11.55,9.376-20.926,20.925-20.926Z"></path>
  <rect width="181.414" height="41.852" x="230.463" y="340.635" fill="#f0a000" rx="20.926" ry="20.926"></rect>
  <path fill="#d89000" fill-rule="evenodd" d="m409.865,370.487c-3.365,7.077-10.592,12-18.914,12h-139.562c-8.322,0-15.548-4.923-18.913-12h177.389Z"></path>
  <path fill="#f0a000" d="m251.389,382.487h139.562c11.549,0,20.926,9.377,20.926,20.926h0c0,11.549-9.377,20.926-20.926,20.926h-139.563c-11.549,0-20.925-9.376-20.925-20.925h0c0-11.55,9.376-20.927,20.926-20.927Z"></path>
  <path fill="#d89000" fill-rule="evenodd" d="m251.389,424.339h139.562c8.322,0,15.548-4.923,18.913-12h-177.389c3.365,7.077,10.592,12,18.913,12Z"></path>
  <rect width="181.414" height="41.852" x="230.463" y="424.339" fill="#f0a000" rx="20.926" ry="20.926"></rect>
  <path fill="#404040" fill-rule="evenodd" d="m391.275,280.574v-134.514H111.504v134.514c0,10.59,62.629,19.175,139.886,19.175s139.885-8.585,139.885-19.175Z"></path>
  <path fill="#282828" fill-rule="evenodd" d="m391.275,280.574v-134.514h-139.885v153.689c77.257,0,139.885-8.585,139.885-19.175Z"></path>
  <polygon fill="#4f4f4f" fill-rule="evenodd" points="489.424 134.639 489.424 134.639 370.407 179.054 251.389 223.469 132.372 179.054 13.354 134.639 13.354 134.639 132.372 90.224 251.389 45.809 370.407 90.224 489.424 134.639"></polygon>
  <polygon fill="#404040" fill-rule="evenodd" points="489.424 134.639 489.424 134.639 370.407 179.054 251.389 223.469 251.389 45.809 370.407 90.224 489.424 134.639"></polygon>
  <path fill="#404040" fill-rule="evenodd" d="m489.424,134.639v67.758c0,3.314-2.686,6-6,6s-6-2.686-6-6v-63.28l12-4.478Z"></path>
  <polygon fill="#404040" fill-rule="evenodd" points="468.202 265.648 483.424 265.648 498.646 265.648 490.76 202.397 483.424 202.397 476.088 202.397 468.202 265.648"></polygon>
  <circle cx="251.389" cy="359.493" r="106.697" fill="#fdcb02" transform="rotate(-4.731 251.403 359.51)"></circle>
  <path fill="#fdae02" fill-rule="evenodd" d="m251.389,252.796c58.927,0,106.697,47.77,106.697,106.697s-47.77,106.697-106.697,106.697v-213.394Z"></path>
  <path fill="#242222" fill-rule="evenodd" d="m283.4,381.578c0,15.49-12.732,28.381-29.385,30.918v10.181c0,3.322-2.688,6-5.992,6s-5.992-2.679-5.992-6v-10.181c-16.653-2.538-29.342-15.428-29.342-30.918,0-3.309,2.688-6,5.992-6s5.992,2.692,5.992,6c0,10.692,10.485,19.38,23.35,19.38s23.35-8.688,23.35-19.38c0-13.428-8.547-15.97-23.702-19.31-13.129-2.908-31.192-6.891-31.192-28.152,0-13.657,11.014-25.068,25.553-27.566v-10.243c0-3.322,2.687-6,5.992-6s5.992,2.678,5.992,6v10.243c14.538,2.498,25.552,13.908,25.552,27.566,0,3.313-2.688,6-5.992,6s-5.992-2.688-5.992-6c0-8.869-8.767-16.09-19.561-16.09s-19.517,7.221-19.517,16.09c0,10.573,6.3,13.01,21.764,16.433,13.966,3.079,33.13,7.309,33.13,31.029h0Zm194.947-121.929l6.388-51.25h4.097l6.388,51.25h-16.874Zm-230.324-42.58L27.171,134.636,248.024,52.221l220.896,82.415-220.896,82.433h0Zm133.886,62.3v-99.461l-131.771,49.18c-.705.26-1.41.379-2.115.379s-1.41-.119-2.071-.379l-131.815-49.18v99.461c2.952,2.243,15.42,6.63,45.686,10.049,20.662-25.949,52.515-42.62,88.2-42.62s67.538,16.671,88.2,42.62c30.311-3.419,42.734-7.807,45.686-10.049h0Zm5.683,67.269c8.239,0,14.935,6.692,14.935,14.922s-6.697,14.931-14.935,14.931h-28.152c.837-5.542,1.278-11.221,1.278-16.992,0-4.348-.264-8.639-.705-12.86h27.579Zm14.935,56.779c0,8.23-6.697,14.922-14.935,14.922h-43.483c5.639-9.172,10.001-19.2,12.82-29.852h30.663c8.239,0,14.935,6.701,14.935,14.93h0Zm0,41.853c0,8.23-6.697,14.917-14.935,14.917h-88.993c14.362-7.239,26.962-17.459,37.007-29.848h51.986c8.239,0,14.935,6.701,14.935,14.931h0Zm-308.964,0c0-8.23,6.697-14.931,14.891-14.931h52.03c10.001,12.389,22.645,22.609,37.007,29.848h-89.037c-8.194,0-14.891-6.688-14.891-14.917h0Zm0-41.853c0-8.23,6.697-14.93,14.891-14.93h30.663c2.864,10.653,7.225,20.68,12.82,29.852h-43.483c-8.194,0-14.891-6.692-14.891-14.922h0Zm0-41.858c0-8.23,6.697-14.922,14.891-14.922h27.623c-.485,4.22-.749,8.512-.749,12.86,0,5.771.441,11.45,1.278,16.992h-28.152c-8.194,0-14.891-6.692-14.891-14.931h0Zm255.172-2.062c0-55.528-45.201-100.699-100.712-100.699s-100.712,45.17-100.712,100.699,45.201,100.69,100.712,100.69,100.712-45.171,100.712-100.69h0Zm159.218-94.588l-7.886-63.251c-.352-3-2.907-5.26-5.947-5.26h-2.027v-61.762c0-.278-.044-.559-.088-.837v-.163c-.132-.546-.308-1.075-.529-1.577,0-.04-.044-.079-.044-.119-.132-.242-.264-.48-.44-.7,0-.022,0-.04-.044-.07-.132-.198-.264-.392-.44-.568-.044-.044-.088-.084-.132-.124-.176-.189-.352-.357-.573-.529-.044-.031-.088-.061-.132-.088-.176-.15-.397-.291-.617-.414,0-.018-.044-.027-.088-.048-.221-.128-.485-.251-.749-.348,0-.013-.044-.022-.044-.031L250.138,40.189c-1.366-.502-2.864-.502-4.185,0L7.919,129.019c-2.379.881-3.921,3.119-3.921,5.617,0,2.511,1.542,4.754,3.921,5.622l94.236,35.17v105.153c0,8.089,10.265,11.926,19.164,14.367,7.842,2.141,18.151,4.022,30.707,5.622-6.388,10.37-11.146,21.847-13.922,34.068h-29.649c-14.847,0-26.918,12.08-26.918,26.922,0,8.45,3.921,15.988,10.001,20.931-6.08,4.939-10.001,12.477-10.001,20.926s3.921,15.984,10.001,20.922c-6.08,4.939-10.001,12.49-10.001,20.931,0,14.838,12.071,26.918,26.918,26.918h279.138c14.847,0,26.918-12.08,26.918-26.918,0-8.441-3.877-15.992-10.001-20.931,6.124-4.939,10.001-12.481,10.001-20.922s-3.877-15.988-10.001-20.926c6.124-4.943,10.001-12.481,10.001-20.931,0-14.842-12.071-26.922-26.918-26.922h-29.605c-2.776-12.221-7.534-23.698-13.922-34.068,12.556-1.599,22.821-3.48,30.663-5.622,8.943-2.441,19.209-6.278,19.209-14.367v-105.153l86.129-32.148v53.118h-.617c-3.04,0-5.595,2.26-5.948,5.26l-7.886,63.251c-.22,1.709.308,3.419,1.454,4.71,1.146,1.291,2.775,2.031,4.494,2.031h30.443c1.718,0,3.348-.74,4.493-2.031,1.146-1.291,1.674-3,1.454-4.71Z"></path>
</svg>
