<svg xmlns="http://www.w3.org/2000/svg" width="400" height="340"><path fill="#e3e3e3" d="M270.44022649861,246.90972258372628C265.5206630693905,254.65371487405824,258.2623150068065,259.7234016903866,251.83633186335715,266.46395374199176C245.4103487199078,273.2045057935969,240.02855478976602,283.95089999229157,231.884327637914,287.35303489335735C223.74010048606198,290.7551697944231,212.29836015602243,288.2642147233245,202.97096895224507,286.87676314838654C193.64357774846772,285.48931157344856,182.8540862232534,284.2853815407798,175.9199804152499,279.02832544372956C168.98587460724642,273.77126934667933,166.97416377289275,262.7731778498065,161.36633410422405,255.33442656608517C155.75850443555535,247.89567528236387,145.54416932446597,242.70309762987668,142.27300240323768,234.3958177414017C139.0018354820094,226.0885378529267,139.67761794995698,214.59321750977807,141.73933257685428,205.49074723523526C143.80104720375158,196.38827696069245,149.05581135090364,187.39014746435183,154.64329016462145,179.78099609414485C160.23076897833926,172.17184472393788,167.18847718189443,164.07790169323795,175.26420545916108,159.8358390139934C183.33993373642772,155.59377633474884,193.66245961502364,155.52218971894735,203.0976598282214,154.3286200186776C212.53286004141916,153.13505031840788,223.60518792977524,149.63656176193325,231.87540673834755,152.67442081237505C240.14562554691986,155.71227986281684,245.88570017777113,166.00047315287713,252.71897267965525,172.55577432132844C259.5522451815394,179.11107548977975,268.1025851231492,184.09885687663763,272.8750417496524,192.0062278230829C277.64749837615557,199.91359876952816,281.7595149805148,210.84941753989278,281.3537124386744,220C280.947909896834,229.15058246010722,275.3597899278295,239.16573029339432,270.44022649861,246.90972258372628" stroke="none" stroke-width="3"/></svg>