<svg xmlns="http://www.w3.org/2000/svg" version="1.1" xmlns:xlink="http://www.w3.org/1999/xlink" xmlns:svgjs="http://svgjs.dev/svgjs" width="1440" height="560" preserveAspectRatio="none" viewBox="0 0 1440 560"><g mask="url(&quot;#SvgjsMask1419&quot;)" fill="none"><rect width="1440" height="560" x="0" y="0" fill="url(&quot;#SvgjsLinearGradient1420&quot;)"></rect><path d="M43.31 182.74L101.34 216.24L101.34 283.24L43.31 316.74L-14.72 283.24L-14.72 216.24zM101.34 283.24L159.36 316.74L159.36 383.74L101.34 417.24L43.31 383.74L43.31 316.74zM43.31 383.74L101.34 417.24L101.34 484.24L43.31 517.74L-14.72 484.24L-14.72 417.24zM217.39 283.24L275.41 316.74L275.41 383.74L217.39 417.24L159.36 383.74L159.36 316.74zM159.36 584.74L217.39 618.24L217.39 685.24L159.36 718.74L101.34 685.24L101.34 618.24zM275.41 383.74L333.44 417.24L333.44 484.24L275.41 517.74L217.39 484.24L217.39 417.24zM275.41 584.74L333.44 618.24L333.44 685.24L275.41 718.74L217.39 685.24L217.39 618.24zM391.46 -18.26L449.49 15.24L449.49 82.24L391.46 115.74L333.44 82.24L333.44 15.24zM449.49 82.24L507.51 115.74L507.51 182.74L449.49 216.24L391.46 182.74L391.46 115.74zM391.46 182.74L449.49 216.24L449.49 283.24L391.46 316.74L333.44 283.24L333.44 216.24zM449.49 283.24L507.51 316.74L507.51 383.74L449.49 417.24L391.46 383.74L391.46 316.74zM449.49 484.24L507.51 517.74L507.51 584.74L449.49 618.24L391.46 584.74L391.46 517.74zM507.51 -18.26L565.54 15.24L565.54 82.24L507.51 115.74L449.49 82.24L449.49 15.24zM507.51 182.74L565.54 216.24L565.54 283.24L507.51 316.74L449.49 283.24L449.49 216.24zM565.54 484.24L623.56 517.74L623.56 584.74L565.54 618.24L507.51 584.74L507.51 517.74zM507.51 584.74L565.54 618.24L565.54 685.24L507.51 718.74L449.49 685.24L449.49 618.24zM681.59 82.24L739.61 115.74L739.61 182.74L681.59 216.24L623.56 182.74L623.56 115.74zM623.56 182.74L681.59 216.24L681.59 283.24L623.56 316.74L565.54 283.24L565.54 216.24zM797.64 82.24L855.66 115.74L855.66 182.74L797.64 216.24L739.61 182.74L739.61 115.74zM797.64 484.24L855.66 517.74L855.66 584.74L797.64 618.24L739.61 584.74L739.61 517.74zM739.61 584.74L797.64 618.24L797.64 685.24L739.61 718.74L681.59 685.24L681.59 618.24zM855.66 383.74L913.69 417.24L913.69 484.24L855.66 517.74L797.64 484.24L797.64 417.24zM1029.74 82.24L1087.77 115.74L1087.77 182.74L1029.74 216.24L971.72 182.74L971.72 115.74zM971.72 182.74L1029.74 216.24L1029.74 283.24L971.72 316.74L913.69 283.24L913.69 216.24zM1029.74 283.24L1087.77 316.74L1087.77 383.74L1029.74 417.24L971.72 383.74L971.72 316.74zM1087.77 182.74L1145.79 216.24L1145.79 283.24L1087.77 316.74L1029.74 283.24L1029.74 216.24zM1145.79 283.24L1203.82 316.74L1203.82 383.74L1145.79 417.24L1087.77 383.74L1087.77 316.74zM1145.79 484.24L1203.82 517.74L1203.82 584.74L1145.79 618.24L1087.77 584.74L1087.77 517.74zM1087.77 584.74L1145.79 618.24L1145.79 685.24L1087.77 718.74L1029.74 685.24L1029.74 618.24zM1261.84 82.24L1319.87 115.74L1319.87 182.74L1261.84 216.24L1203.82 182.74L1203.82 115.74zM1203.82 182.74L1261.84 216.24L1261.84 283.24L1203.82 316.74L1145.79 283.24L1145.79 216.24zM1261.84 484.24L1319.87 517.74L1319.87 584.74L1261.84 618.24L1203.82 584.74L1203.82 517.74zM1203.82 584.74L1261.84 618.24L1261.84 685.24L1203.82 718.74L1145.79 685.24L1145.79 618.24zM1319.87 182.74L1377.89 216.24L1377.89 283.24L1319.87 316.74L1261.84 283.24L1261.84 216.24zM1377.89 283.24L1435.92 316.74L1435.92 383.74L1377.89 417.24L1319.87 383.74L1319.87 316.74zM1435.92 383.74L1493.94 417.24L1493.94 484.24L1435.92 517.74L1377.89 484.24L1377.89 417.24z" stroke="#03305d" stroke-width="2"></path><path d="M36.61 182.74 a6.7 6.7 0 1 0 13.4 0 a6.7 6.7 0 1 0 -13.4 0zM94.64 216.24 a6.7 6.7 0 1 0 13.4 0 a6.7 6.7 0 1 0 -13.4 0zM94.64 283.24 a6.7 6.7 0 1 0 13.4 0 a6.7 6.7 0 1 0 -13.4 0zM36.61 316.74 a6.7 6.7 0 1 0 13.4 0 a6.7 6.7 0 1 0 -13.4 0zM-21.42 283.24 a6.7 6.7 0 1 0 13.4 0 a6.7 6.7 0 1 0 -13.4 0zM-21.42 216.24 a6.7 6.7 0 1 0 13.4 0 a6.7 6.7 0 1 0 -13.4 0zM152.66 316.74 a6.7 6.7 0 1 0 13.4 0 a6.7 6.7 0 1 0 -13.4 0zM152.66 383.74 a6.7 6.7 0 1 0 13.4 0 a6.7 6.7 0 1 0 -13.4 0zM94.64 417.24 a6.7 6.7 0 1 0 13.4 0 a6.7 6.7 0 1 0 -13.4 0zM36.61 383.74 a6.7 6.7 0 1 0 13.4 0 a6.7 6.7 0 1 0 -13.4 0zM94.64 484.24 a6.7 6.7 0 1 0 13.4 0 a6.7 6.7 0 1 0 -13.4 0zM36.61 517.74 a6.7 6.7 0 1 0 13.4 0 a6.7 6.7 0 1 0 -13.4 0zM-21.42 484.24 a6.7 6.7 0 1 0 13.4 0 a6.7 6.7 0 1 0 -13.4 0zM-21.42 417.24 a6.7 6.7 0 1 0 13.4 0 a6.7 6.7 0 1 0 -13.4 0zM210.69 283.24 a6.7 6.7 0 1 0 13.4 0 a6.7 6.7 0 1 0 -13.4 0zM268.71 316.74 a6.7 6.7 0 1 0 13.4 0 a6.7 6.7 0 1 0 -13.4 0zM268.71 383.74 a6.7 6.7 0 1 0 13.4 0 a6.7 6.7 0 1 0 -13.4 0zM210.69 417.24 a6.7 6.7 0 1 0 13.4 0 a6.7 6.7 0 1 0 -13.4 0zM152.66 584.74 a6.7 6.7 0 1 0 13.4 0 a6.7 6.7 0 1 0 -13.4 0zM210.69 618.24 a6.7 6.7 0 1 0 13.4 0 a6.7 6.7 0 1 0 -13.4 0zM210.69 685.24 a6.7 6.7 0 1 0 13.4 0 a6.7 6.7 0 1 0 -13.4 0zM152.66 718.74 a6.7 6.7 0 1 0 13.4 0 a6.7 6.7 0 1 0 -13.4 0zM94.64 685.24 a6.7 6.7 0 1 0 13.4 0 a6.7 6.7 0 1 0 -13.4 0zM94.64 618.24 a6.7 6.7 0 1 0 13.4 0 a6.7 6.7 0 1 0 -13.4 0zM326.74 417.24 a6.7 6.7 0 1 0 13.4 0 a6.7 6.7 0 1 0 -13.4 0zM326.74 484.24 a6.7 6.7 0 1 0 13.4 0 a6.7 6.7 0 1 0 -13.4 0zM268.71 517.74 a6.7 6.7 0 1 0 13.4 0 a6.7 6.7 0 1 0 -13.4 0zM210.69 484.24 a6.7 6.7 0 1 0 13.4 0 a6.7 6.7 0 1 0 -13.4 0zM268.71 584.74 a6.7 6.7 0 1 0 13.4 0 a6.7 6.7 0 1 0 -13.4 0zM326.74 618.24 a6.7 6.7 0 1 0 13.4 0 a6.7 6.7 0 1 0 -13.4 0zM326.74 685.24 a6.7 6.7 0 1 0 13.4 0 a6.7 6.7 0 1 0 -13.4 0zM268.71 718.74 a6.7 6.7 0 1 0 13.4 0 a6.7 6.7 0 1 0 -13.4 0zM384.76 -18.26 a6.7 6.7 0 1 0 13.4 0 a6.7 6.7 0 1 0 -13.4 0zM442.79 15.24 a6.7 6.7 0 1 0 13.4 0 a6.7 6.7 0 1 0 -13.4 0zM442.79 82.24 a6.7 6.7 0 1 0 13.4 0 a6.7 6.7 0 1 0 -13.4 0zM384.76 115.74 a6.7 6.7 0 1 0 13.4 0 a6.7 6.7 0 1 0 -13.4 0zM326.74 82.24 a6.7 6.7 0 1 0 13.4 0 a6.7 6.7 0 1 0 -13.4 0zM326.74 15.24 a6.7 6.7 0 1 0 13.4 0 a6.7 6.7 0 1 0 -13.4 0zM500.81 115.74 a6.7 6.7 0 1 0 13.4 0 a6.7 6.7 0 1 0 -13.4 0zM500.81 182.74 a6.7 6.7 0 1 0 13.4 0 a6.7 6.7 0 1 0 -13.4 0zM442.79 216.24 a6.7 6.7 0 1 0 13.4 0 a6.7 6.7 0 1 0 -13.4 0zM384.76 182.74 a6.7 6.7 0 1 0 13.4 0 a6.7 6.7 0 1 0 -13.4 0zM442.79 283.24 a6.7 6.7 0 1 0 13.4 0 a6.7 6.7 0 1 0 -13.4 0zM384.76 316.74 a6.7 6.7 0 1 0 13.4 0 a6.7 6.7 0 1 0 -13.4 0zM326.74 283.24 a6.7 6.7 0 1 0 13.4 0 a6.7 6.7 0 1 0 -13.4 0zM326.74 216.24 a6.7 6.7 0 1 0 13.4 0 a6.7 6.7 0 1 0 -13.4 0zM500.81 316.74 a6.7 6.7 0 1 0 13.4 0 a6.7 6.7 0 1 0 -13.4 0zM500.81 383.74 a6.7 6.7 0 1 0 13.4 0 a6.7 6.7 0 1 0 -13.4 0zM442.79 417.24 a6.7 6.7 0 1 0 13.4 0 a6.7 6.7 0 1 0 -13.4 0zM384.76 383.74 a6.7 6.7 0 1 0 13.4 0 a6.7 6.7 0 1 0 -13.4 0zM442.79 484.24 a6.7 6.7 0 1 0 13.4 0 a6.7 6.7 0 1 0 -13.4 0zM500.81 517.74 a6.7 6.7 0 1 0 13.4 0 a6.7 6.7 0 1 0 -13.4 0zM500.81 584.74 a6.7 6.7 0 1 0 13.4 0 a6.7 6.7 0 1 0 -13.4 0zM442.79 618.24 a6.7 6.7 0 1 0 13.4 0 a6.7 6.7 0 1 0 -13.4 0zM384.76 584.74 a6.7 6.7 0 1 0 13.4 0 a6.7 6.7 0 1 0 -13.4 0zM384.76 517.74 a6.7 6.7 0 1 0 13.4 0 a6.7 6.7 0 1 0 -13.4 0zM500.81 -18.26 a6.7 6.7 0 1 0 13.4 0 a6.7 6.7 0 1 0 -13.4 0zM558.84 15.24 a6.7 6.7 0 1 0 13.4 0 a6.7 6.7 0 1 0 -13.4 0zM558.84 82.24 a6.7 6.7 0 1 0 13.4 0 a6.7 6.7 0 1 0 -13.4 0zM558.84 216.24 a6.7 6.7 0 1 0 13.4 0 a6.7 6.7 0 1 0 -13.4 0zM558.84 283.24 a6.7 6.7 0 1 0 13.4 0 a6.7 6.7 0 1 0 -13.4 0zM558.84 484.24 a6.7 6.7 0 1 0 13.4 0 a6.7 6.7 0 1 0 -13.4 0zM616.86 517.74 a6.7 6.7 0 1 0 13.4 0 a6.7 6.7 0 1 0 -13.4 0zM616.86 584.74 a6.7 6.7 0 1 0 13.4 0 a6.7 6.7 0 1 0 -13.4 0zM558.84 618.24 a6.7 6.7 0 1 0 13.4 0 a6.7 6.7 0 1 0 -13.4 0zM558.84 685.24 a6.7 6.7 0 1 0 13.4 0 a6.7 6.7 0 1 0 -13.4 0zM500.81 718.74 a6.7 6.7 0 1 0 13.4 0 a6.7 6.7 0 1 0 -13.4 0zM442.79 685.24 a6.7 6.7 0 1 0 13.4 0 a6.7 6.7 0 1 0 -13.4 0zM674.89 82.24 a6.7 6.7 0 1 0 13.4 0 a6.7 6.7 0 1 0 -13.4 0zM732.91 115.74 a6.7 6.7 0 1 0 13.4 0 a6.7 6.7 0 1 0 -13.4 0zM732.91 182.74 a6.7 6.7 0 1 0 13.4 0 a6.7 6.7 0 1 0 -13.4 0zM674.89 216.24 a6.7 6.7 0 1 0 13.4 0 a6.7 6.7 0 1 0 -13.4 0zM616.86 182.74 a6.7 6.7 0 1 0 13.4 0 a6.7 6.7 0 1 0 -13.4 0zM616.86 115.74 a6.7 6.7 0 1 0 13.4 0 a6.7 6.7 0 1 0 -13.4 0zM674.89 283.24 a6.7 6.7 0 1 0 13.4 0 a6.7 6.7 0 1 0 -13.4 0zM616.86 316.74 a6.7 6.7 0 1 0 13.4 0 a6.7 6.7 0 1 0 -13.4 0zM790.94 82.24 a6.7 6.7 0 1 0 13.4 0 a6.7 6.7 0 1 0 -13.4 0zM848.96 115.74 a6.7 6.7 0 1 0 13.4 0 a6.7 6.7 0 1 0 -13.4 0zM848.96 182.74 a6.7 6.7 0 1 0 13.4 0 a6.7 6.7 0 1 0 -13.4 0zM790.94 216.24 a6.7 6.7 0 1 0 13.4 0 a6.7 6.7 0 1 0 -13.4 0zM790.94 484.24 a6.7 6.7 0 1 0 13.4 0 a6.7 6.7 0 1 0 -13.4 0zM848.96 517.74 a6.7 6.7 0 1 0 13.4 0 a6.7 6.7 0 1 0 -13.4 0zM848.96 584.74 a6.7 6.7 0 1 0 13.4 0 a6.7 6.7 0 1 0 -13.4 0zM790.94 618.24 a6.7 6.7 0 1 0 13.4 0 a6.7 6.7 0 1 0 -13.4 0zM732.91 584.74 a6.7 6.7 0 1 0 13.4 0 a6.7 6.7 0 1 0 -13.4 0zM732.91 517.74 a6.7 6.7 0 1 0 13.4 0 a6.7 6.7 0 1 0 -13.4 0zM790.94 685.24 a6.7 6.7 0 1 0 13.4 0 a6.7 6.7 0 1 0 -13.4 0zM732.91 718.74 a6.7 6.7 0 1 0 13.4 0 a6.7 6.7 0 1 0 -13.4 0zM674.89 685.24 a6.7 6.7 0 1 0 13.4 0 a6.7 6.7 0 1 0 -13.4 0zM674.89 618.24 a6.7 6.7 0 1 0 13.4 0 a6.7 6.7 0 1 0 -13.4 0zM848.96 383.74 a6.7 6.7 0 1 0 13.4 0 a6.7 6.7 0 1 0 -13.4 0zM906.99 417.24 a6.7 6.7 0 1 0 13.4 0 a6.7 6.7 0 1 0 -13.4 0zM906.99 484.24 a6.7 6.7 0 1 0 13.4 0 a6.7 6.7 0 1 0 -13.4 0zM790.94 417.24 a6.7 6.7 0 1 0 13.4 0 a6.7 6.7 0 1 0 -13.4 0zM1023.04 82.24 a6.7 6.7 0 1 0 13.4 0 a6.7 6.7 0 1 0 -13.4 0zM1081.07 115.74 a6.7 6.7 0 1 0 13.4 0 a6.7 6.7 0 1 0 -13.4 0zM1081.07 182.74 a6.7 6.7 0 1 0 13.4 0 a6.7 6.7 0 1 0 -13.4 0zM1023.04 216.24 a6.7 6.7 0 1 0 13.4 0 a6.7 6.7 0 1 0 -13.4 0zM965.02 182.74 a6.7 6.7 0 1 0 13.4 0 a6.7 6.7 0 1 0 -13.4 0zM965.02 115.74 a6.7 6.7 0 1 0 13.4 0 a6.7 6.7 0 1 0 -13.4 0zM1023.04 283.24 a6.7 6.7 0 1 0 13.4 0 a6.7 6.7 0 1 0 -13.4 0zM965.02 316.74 a6.7 6.7 0 1 0 13.4 0 a6.7 6.7 0 1 0 -13.4 0zM906.99 283.24 a6.7 6.7 0 1 0 13.4 0 a6.7 6.7 0 1 0 -13.4 0zM906.99 216.24 a6.7 6.7 0 1 0 13.4 0 a6.7 6.7 0 1 0 -13.4 0zM1081.07 316.74 a6.7 6.7 0 1 0 13.4 0 a6.7 6.7 0 1 0 -13.4 0zM1081.07 383.74 a6.7 6.7 0 1 0 13.4 0 a6.7 6.7 0 1 0 -13.4 0zM1023.04 417.24 a6.7 6.7 0 1 0 13.4 0 a6.7 6.7 0 1 0 -13.4 0zM965.02 383.74 a6.7 6.7 0 1 0 13.4 0 a6.7 6.7 0 1 0 -13.4 0zM1139.09 216.24 a6.7 6.7 0 1 0 13.4 0 a6.7 6.7 0 1 0 -13.4 0zM1139.09 283.24 a6.7 6.7 0 1 0 13.4 0 a6.7 6.7 0 1 0 -13.4 0zM1197.12 316.74 a6.7 6.7 0 1 0 13.4 0 a6.7 6.7 0 1 0 -13.4 0zM1197.12 383.74 a6.7 6.7 0 1 0 13.4 0 a6.7 6.7 0 1 0 -13.4 0zM1139.09 417.24 a6.7 6.7 0 1 0 13.4 0 a6.7 6.7 0 1 0 -13.4 0zM1139.09 484.24 a6.7 6.7 0 1 0 13.4 0 a6.7 6.7 0 1 0 -13.4 0zM1197.12 517.74 a6.7 6.7 0 1 0 13.4 0 a6.7 6.7 0 1 0 -13.4 0zM1197.12 584.74 a6.7 6.7 0 1 0 13.4 0 a6.7 6.7 0 1 0 -13.4 0zM1139.09 618.24 a6.7 6.7 0 1 0 13.4 0 a6.7 6.7 0 1 0 -13.4 0zM1081.07 584.74 a6.7 6.7 0 1 0 13.4 0 a6.7 6.7 0 1 0 -13.4 0zM1081.07 517.74 a6.7 6.7 0 1 0 13.4 0 a6.7 6.7 0 1 0 -13.4 0zM1139.09 685.24 a6.7 6.7 0 1 0 13.4 0 a6.7 6.7 0 1 0 -13.4 0zM1081.07 718.74 a6.7 6.7 0 1 0 13.4 0 a6.7 6.7 0 1 0 -13.4 0zM1023.04 685.24 a6.7 6.7 0 1 0 13.4 0 a6.7 6.7 0 1 0 -13.4 0zM1023.04 618.24 a6.7 6.7 0 1 0 13.4 0 a6.7 6.7 0 1 0 -13.4 0zM1255.14 82.24 a6.7 6.7 0 1 0 13.4 0 a6.7 6.7 0 1 0 -13.4 0zM1313.17 115.74 a6.7 6.7 0 1 0 13.4 0 a6.7 6.7 0 1 0 -13.4 0zM1313.17 182.74 a6.7 6.7 0 1 0 13.4 0 a6.7 6.7 0 1 0 -13.4 0zM1255.14 216.24 a6.7 6.7 0 1 0 13.4 0 a6.7 6.7 0 1 0 -13.4 0zM1197.12 182.74 a6.7 6.7 0 1 0 13.4 0 a6.7 6.7 0 1 0 -13.4 0zM1197.12 115.74 a6.7 6.7 0 1 0 13.4 0 a6.7 6.7 0 1 0 -13.4 0zM1255.14 283.24 a6.7 6.7 0 1 0 13.4 0 a6.7 6.7 0 1 0 -13.4 0zM1255.14 484.24 a6.7 6.7 0 1 0 13.4 0 a6.7 6.7 0 1 0 -13.4 0zM1313.17 517.74 a6.7 6.7 0 1 0 13.4 0 a6.7 6.7 0 1 0 -13.4 0zM1313.17 584.74 a6.7 6.7 0 1 0 13.4 0 a6.7 6.7 0 1 0 -13.4 0zM1255.14 618.24 a6.7 6.7 0 1 0 13.4 0 a6.7 6.7 0 1 0 -13.4 0zM1255.14 685.24 a6.7 6.7 0 1 0 13.4 0 a6.7 6.7 0 1 0 -13.4 0zM1197.12 718.74 a6.7 6.7 0 1 0 13.4 0 a6.7 6.7 0 1 0 -13.4 0zM1371.19 216.24 a6.7 6.7 0 1 0 13.4 0 a6.7 6.7 0 1 0 -13.4 0zM1371.19 283.24 a6.7 6.7 0 1 0 13.4 0 a6.7 6.7 0 1 0 -13.4 0zM1313.17 316.74 a6.7 6.7 0 1 0 13.4 0 a6.7 6.7 0 1 0 -13.4 0zM1429.22 316.74 a6.7 6.7 0 1 0 13.4 0 a6.7 6.7 0 1 0 -13.4 0zM1429.22 383.74 a6.7 6.7 0 1 0 13.4 0 a6.7 6.7 0 1 0 -13.4 0zM1371.19 417.24 a6.7 6.7 0 1 0 13.4 0 a6.7 6.7 0 1 0 -13.4 0zM1313.17 383.74 a6.7 6.7 0 1 0 13.4 0 a6.7 6.7 0 1 0 -13.4 0zM1487.24 417.24 a6.7 6.7 0 1 0 13.4 0 a6.7 6.7 0 1 0 -13.4 0zM1487.24 484.24 a6.7 6.7 0 1 0 13.4 0 a6.7 6.7 0 1 0 -13.4 0zM1429.22 517.74 a6.7 6.7 0 1 0 13.4 0 a6.7 6.7 0 1 0 -13.4 0zM1371.19 484.24 a6.7 6.7 0 1 0 13.4 0 a6.7 6.7 0 1 0 -13.4 0z" fill="#03305d"></path><path d="M10.72 313.05L41.9 331.05L41.9 367.05L10.72 385.05L-20.46 367.05L-20.46 331.05zM73.08 205.05L104.25 223.05L104.25 259.05L73.08 277.05L41.9 259.05L41.9 223.05zM104.25 367.05L135.43 385.05L135.43 421.05L104.25 439.05L73.08 421.05L73.08 385.05zM73.08 421.05L104.25 439.05L104.25 475.05L73.08 493.05L41.9 475.05L41.9 439.05zM197.79 97.05L228.96 115.05L228.96 151.05L197.79 169.05L166.61 151.05L166.61 115.05zM197.79 421.05L228.96 439.05L228.96 475.05L197.79 493.05L166.61 475.05L166.61 439.05zM260.14 529.05L291.32 547.05L291.32 583.05L260.14 601.05L228.96 583.05L228.96 547.05zM322.5 421.05L353.68 439.05L353.68 475.05L322.5 493.05L291.32 475.05L291.32 439.05zM384.85 97.05L416.03 115.05L416.03 151.05L384.85 169.05L353.68 151.05L353.68 115.05zM384.85 205.05L416.03 223.05L416.03 259.05L384.85 277.05L353.68 259.05L353.68 223.05zM478.39 43.05L509.56 61.05L509.56 97.05L478.39 115.05L447.21 97.05L447.21 61.05zM447.21 421.05L478.39 439.05L478.39 475.05L447.21 493.05L416.03 475.05L416.03 439.05zM571.92 205.05L603.1 223.05L603.1 259.05L571.92 277.05L540.74 259.05L540.74 223.05zM571.92 529.05L603.1 547.05L603.1 583.05L571.92 601.05L540.74 583.05L540.74 547.05zM634.28 313.05L665.45 331.05L665.45 367.05L634.28 385.05L603.1 367.05L603.1 331.05zM790.17 43.05L821.34 61.05L821.34 97.05L790.17 115.05L758.99 97.05L758.99 61.05zM758.99 313.05L790.17 331.05L790.17 367.05L758.99 385.05L727.81 367.05L727.81 331.05zM790.17 367.05L821.34 385.05L821.34 421.05L790.17 439.05L758.99 421.05L758.99 385.05zM852.52 43.05L883.7 61.05L883.7 97.05L852.52 115.05L821.34 97.05L821.34 61.05zM883.7 97.05L914.88 115.05L914.88 151.05L883.7 169.05L852.52 151.05L852.52 115.05zM883.7 205.05L914.88 223.05L914.88 259.05L883.7 277.05L852.52 259.05L852.52 223.05zM914.88 259.05L946.05 277.05L946.05 313.05L914.88 331.05L883.7 313.05L883.7 277.05zM883.7 313.05L914.88 331.05L914.88 367.05L883.7 385.05L852.52 367.05L852.52 331.05zM914.88 475.05L946.05 493.05L946.05 529.05L914.88 547.05L883.7 529.05L883.7 493.05zM946.05 205.05L977.23 223.05L977.23 259.05L946.05 277.05L914.88 259.05L914.88 223.05zM977.23 367.05L1008.41 385.05L1008.41 421.05L977.23 439.05L946.05 421.05L946.05 385.05zM1039.59 259.05L1070.77 277.05L1070.77 313.05L1039.59 331.05L1008.41 313.05L1008.41 277.05zM1164.3 151.05L1195.48 169.05L1195.48 205.05L1164.3 223.05L1133.12 205.05L1133.12 169.05zM1257.83 -10.95L1289.01 7.05L1289.01 43.05L1257.83 61.05L1226.65 43.05L1226.65 7.05zM1289.01 259.05L1320.19 277.05L1320.19 313.05L1289.01 331.05L1257.83 313.05L1257.83 277.05zM1257.83 529.05L1289.01 547.05L1289.01 583.05L1257.83 601.05L1226.65 583.05L1226.65 547.05zM1320.19 205.05L1351.37 223.05L1351.37 259.05L1320.19 277.05L1289.01 259.05L1289.01 223.05zM1320.19 529.05L1351.37 547.05L1351.37 583.05L1320.19 601.05L1289.01 583.05L1289.01 547.05zM1413.72 151.05L1444.9 169.05L1444.9 205.05L1413.72 223.05L1382.54 205.05L1382.54 169.05zM1413.72 367.05L1444.9 385.05L1444.9 421.05L1413.72 439.05L1382.54 421.05L1382.54 385.05zM1413.72 475.05L1444.9 493.05L1444.9 529.05L1413.72 547.05L1382.54 529.05L1382.54 493.05zM1444.9 97.05L1476.08 115.05L1476.08 151.05L1444.9 169.05L1413.72 151.05L1413.72 115.05zM1444.9 529.05L1476.08 547.05L1476.08 583.05L1444.9 601.05L1413.72 583.05L1413.72 547.05z" stroke="rgba(6, 80, 156, 0.93)" stroke-width="2"></path></g><defs><mask id="SvgjsMask1419"><rect width="1440" height="560" fill="#ffffff"></rect></mask><linearGradient x1="15.28%" y1="-39.29%" x2="84.72%" y2="139.29%" gradientUnits="userSpaceOnUse" id="SvgjsLinearGradient1420"><stop stop-color="#0e2a47" offset="0"></stop><stop stop-color="rgba(27, 27, 27, 1)" offset="0.93"></stop><stop stop-color="#00459e" offset="1"></stop></linearGradient></defs></svg>