<svg xmlns="http://www.w3.org/2000/svg" version="1.1" xmlns:xlink="http://www.w3.org/1999/xlink" xmlns:svgjs="http://svgjs.dev/svgjs" width="1080" height="2840" preserveAspectRatio="none" viewBox="0 0 1080 2840"><g mask="url(&quot;#SvgjsMask1354&quot;)" fill="none"><rect width="1080" height="2840" x="0" y="0" fill="url(&quot;#SvgjsLinearGradient1355&quot;)"></rect><path d="M73.1 198.63L158.84 248.13L158.84 347.13L73.1 396.63L-12.64 347.13L-12.64 248.13zM73.1 1386.63L158.84 1436.13L158.84 1535.13L73.1 1584.63L-12.64 1535.13L-12.64 1436.13zM158.84 1535.13L244.58 1584.63L244.58 1683.63L158.84 1733.13L73.1 1683.63L73.1 1584.63zM73.1 2277.63L158.84 2327.13L158.84 2426.13L73.1 2475.63L-12.64 2426.13L-12.64 2327.13zM330.32 347.13L416.06 396.63L416.06 495.63L330.32 545.13L244.58 495.63L244.58 396.63zM244.58 495.63L330.32 545.13L330.32 644.13L244.58 693.63L158.84 644.13L158.84 545.13zM330.32 644.13L416.06 693.63L416.06 792.63L330.32 842.13L244.58 792.63L244.58 693.63zM244.58 2277.63L330.32 2327.13L330.32 2426.13L244.58 2475.63L158.84 2426.13L158.84 2327.13zM416.06 -98.37L501.79 -48.87L501.79 50.13L416.06 99.63L330.32 50.13L330.32 -48.87zM416.06 198.63L501.79 248.13L501.79 347.13L416.06 396.63L330.32 347.13L330.32 248.13zM416.06 1386.63L501.79 1436.13L501.79 1535.13L416.06 1584.63L330.32 1535.13L330.32 1436.13zM416.06 2277.63L501.79 2327.13L501.79 2426.13L416.06 2475.63L330.32 2426.13L330.32 2327.13zM673.27 50.13L759.01 99.63L759.01 198.63L673.27 248.13L587.53 198.63L587.53 99.63zM673.27 347.13L759.01 396.63L759.01 495.63L673.27 545.13L587.53 495.63L587.53 396.63zM587.53 792.63L673.27 842.13L673.27 941.13L587.53 990.63L501.79 941.13L501.79 842.13zM587.53 1683.63L673.27 1733.13L673.27 1832.13L587.53 1881.63L501.79 1832.13L501.79 1733.13zM587.53 1980.63L673.27 2030.13L673.27 2129.13L587.53 2178.63L501.79 2129.13L501.79 2030.13zM587.53 2277.63L673.27 2327.13L673.27 2426.13L587.53 2475.63L501.79 2426.13L501.79 2327.13zM844.75 347.13L930.49 396.63L930.49 495.63L844.75 545.13L759.01 495.63L759.01 396.63zM844.75 941.13L930.49 990.63L930.49 1089.63L844.75 1139.13L759.01 1089.63L759.01 990.63zM844.75 1535.13L930.49 1584.63L930.49 1683.63L844.75 1733.13L759.01 1683.63L759.01 1584.63zM759.01 2277.63L844.75 2327.13L844.75 2426.13L759.01 2475.63L673.27 2426.13L673.27 2327.13zM844.75 2723.13L930.49 2772.63L930.49 2871.63L844.75 2921.13L759.01 2871.63L759.01 2772.63zM930.49 1386.63L1016.23 1436.13L1016.23 1535.13L930.49 1584.63L844.75 1535.13L844.75 1436.13zM1016.23 2723.13L1101.97 2772.63L1101.97 2871.63L1016.23 2921.13L930.49 2871.63L930.49 2772.63zM1187.71 50.13L1273.45 99.63L1273.45 198.63L1187.71 248.13L1101.97 198.63L1101.97 99.63zM1187.71 644.13L1273.45 693.63L1273.45 792.63L1187.71 842.13L1101.97 792.63L1101.97 693.63zM1101.97 1980.63L1187.71 2030.13L1187.71 2129.13L1101.97 2178.63L1016.23 2129.13L1016.23 2030.13zM1187.71 2129.13L1273.45 2178.63L1273.45 2277.63L1187.71 2327.13L1101.97 2277.63L1101.97 2178.63zM1101.97 2277.63L1187.71 2327.13L1187.71 2426.13L1101.97 2475.63L1016.23 2426.13L1016.23 2327.13z" stroke="#03305d" stroke-width="2"></path><path d="M63.2 198.63 a9.9 9.9 0 1 0 19.8 0 a9.9 9.9 0 1 0 -19.8 0zM148.94 248.13 a9.9 9.9 0 1 0 19.8 0 a9.9 9.9 0 1 0 -19.8 0zM148.94 347.13 a9.9 9.9 0 1 0 19.8 0 a9.9 9.9 0 1 0 -19.8 0zM63.2 396.63 a9.9 9.9 0 1 0 19.8 0 a9.9 9.9 0 1 0 -19.8 0zM-22.54 347.13 a9.9 9.9 0 1 0 19.8 0 a9.9 9.9 0 1 0 -19.8 0zM-22.54 248.13 a9.9 9.9 0 1 0 19.8 0 a9.9 9.9 0 1 0 -19.8 0zM63.2 1386.63 a9.9 9.9 0 1 0 19.8 0 a9.9 9.9 0 1 0 -19.8 0zM148.94 1436.13 a9.9 9.9 0 1 0 19.8 0 a9.9 9.9 0 1 0 -19.8 0zM148.94 1535.13 a9.9 9.9 0 1 0 19.8 0 a9.9 9.9 0 1 0 -19.8 0zM63.2 1584.63 a9.9 9.9 0 1 0 19.8 0 a9.9 9.9 0 1 0 -19.8 0zM-22.54 1535.13 a9.9 9.9 0 1 0 19.8 0 a9.9 9.9 0 1 0 -19.8 0zM-22.54 1436.13 a9.9 9.9 0 1 0 19.8 0 a9.9 9.9 0 1 0 -19.8 0zM234.68 1584.63 a9.9 9.9 0 1 0 19.8 0 a9.9 9.9 0 1 0 -19.8 0zM234.68 1683.63 a9.9 9.9 0 1 0 19.8 0 a9.9 9.9 0 1 0 -19.8 0zM148.94 1733.13 a9.9 9.9 0 1 0 19.8 0 a9.9 9.9 0 1 0 -19.8 0zM63.2 1683.63 a9.9 9.9 0 1 0 19.8 0 a9.9 9.9 0 1 0 -19.8 0zM63.2 2277.63 a9.9 9.9 0 1 0 19.8 0 a9.9 9.9 0 1 0 -19.8 0zM148.94 2327.13 a9.9 9.9 0 1 0 19.8 0 a9.9 9.9 0 1 0 -19.8 0zM148.94 2426.13 a9.9 9.9 0 1 0 19.8 0 a9.9 9.9 0 1 0 -19.8 0zM63.2 2475.63 a9.9 9.9 0 1 0 19.8 0 a9.9 9.9 0 1 0 -19.8 0zM-22.54 2426.13 a9.9 9.9 0 1 0 19.8 0 a9.9 9.9 0 1 0 -19.8 0zM-22.54 2327.13 a9.9 9.9 0 1 0 19.8 0 a9.9 9.9 0 1 0 -19.8 0zM320.42 347.13 a9.9 9.9 0 1 0 19.8 0 a9.9 9.9 0 1 0 -19.8 0zM406.16 396.63 a9.9 9.9 0 1 0 19.8 0 a9.9 9.9 0 1 0 -19.8 0zM406.16 495.63 a9.9 9.9 0 1 0 19.8 0 a9.9 9.9 0 1 0 -19.8 0zM320.42 545.13 a9.9 9.9 0 1 0 19.8 0 a9.9 9.9 0 1 0 -19.8 0zM234.68 495.63 a9.9 9.9 0 1 0 19.8 0 a9.9 9.9 0 1 0 -19.8 0zM234.68 396.63 a9.9 9.9 0 1 0 19.8 0 a9.9 9.9 0 1 0 -19.8 0zM320.42 644.13 a9.9 9.9 0 1 0 19.8 0 a9.9 9.9 0 1 0 -19.8 0zM234.68 693.63 a9.9 9.9 0 1 0 19.8 0 a9.9 9.9 0 1 0 -19.8 0zM148.94 644.13 a9.9 9.9 0 1 0 19.8 0 a9.9 9.9 0 1 0 -19.8 0zM148.94 545.13 a9.9 9.9 0 1 0 19.8 0 a9.9 9.9 0 1 0 -19.8 0zM406.16 693.63 a9.9 9.9 0 1 0 19.8 0 a9.9 9.9 0 1 0 -19.8 0zM406.16 792.63 a9.9 9.9 0 1 0 19.8 0 a9.9 9.9 0 1 0 -19.8 0zM320.42 842.13 a9.9 9.9 0 1 0 19.8 0 a9.9 9.9 0 1 0 -19.8 0zM234.68 792.63 a9.9 9.9 0 1 0 19.8 0 a9.9 9.9 0 1 0 -19.8 0zM234.68 2277.63 a9.9 9.9 0 1 0 19.8 0 a9.9 9.9 0 1 0 -19.8 0zM320.42 2327.13 a9.9 9.9 0 1 0 19.8 0 a9.9 9.9 0 1 0 -19.8 0zM320.42 2426.13 a9.9 9.9 0 1 0 19.8 0 a9.9 9.9 0 1 0 -19.8 0zM234.68 2475.63 a9.9 9.9 0 1 0 19.8 0 a9.9 9.9 0 1 0 -19.8 0zM406.16 -98.37 a9.9 9.9 0 1 0 19.8 0 a9.9 9.9 0 1 0 -19.8 0zM491.89 -48.87 a9.9 9.9 0 1 0 19.8 0 a9.9 9.9 0 1 0 -19.8 0zM491.89 50.13 a9.9 9.9 0 1 0 19.8 0 a9.9 9.9 0 1 0 -19.8 0zM406.16 99.63 a9.9 9.9 0 1 0 19.8 0 a9.9 9.9 0 1 0 -19.8 0zM320.42 50.13 a9.9 9.9 0 1 0 19.8 0 a9.9 9.9 0 1 0 -19.8 0zM320.42 -48.87 a9.9 9.9 0 1 0 19.8 0 a9.9 9.9 0 1 0 -19.8 0zM406.16 198.63 a9.9 9.9 0 1 0 19.8 0 a9.9 9.9 0 1 0 -19.8 0zM491.89 248.13 a9.9 9.9 0 1 0 19.8 0 a9.9 9.9 0 1 0 -19.8 0zM491.89 347.13 a9.9 9.9 0 1 0 19.8 0 a9.9 9.9 0 1 0 -19.8 0zM320.42 248.13 a9.9 9.9 0 1 0 19.8 0 a9.9 9.9 0 1 0 -19.8 0zM406.16 1386.63 a9.9 9.9 0 1 0 19.8 0 a9.9 9.9 0 1 0 -19.8 0zM491.89 1436.13 a9.9 9.9 0 1 0 19.8 0 a9.9 9.9 0 1 0 -19.8 0zM491.89 1535.13 a9.9 9.9 0 1 0 19.8 0 a9.9 9.9 0 1 0 -19.8 0zM406.16 1584.63 a9.9 9.9 0 1 0 19.8 0 a9.9 9.9 0 1 0 -19.8 0zM320.42 1535.13 a9.9 9.9 0 1 0 19.8 0 a9.9 9.9 0 1 0 -19.8 0zM320.42 1436.13 a9.9 9.9 0 1 0 19.8 0 a9.9 9.9 0 1 0 -19.8 0zM406.16 2277.63 a9.9 9.9 0 1 0 19.8 0 a9.9 9.9 0 1 0 -19.8 0zM491.89 2327.13 a9.9 9.9 0 1 0 19.8 0 a9.9 9.9 0 1 0 -19.8 0zM491.89 2426.13 a9.9 9.9 0 1 0 19.8 0 a9.9 9.9 0 1 0 -19.8 0zM406.16 2475.63 a9.9 9.9 0 1 0 19.8 0 a9.9 9.9 0 1 0 -19.8 0zM663.37 50.13 a9.9 9.9 0 1 0 19.8 0 a9.9 9.9 0 1 0 -19.8 0zM749.11 99.63 a9.9 9.9 0 1 0 19.8 0 a9.9 9.9 0 1 0 -19.8 0zM749.11 198.63 a9.9 9.9 0 1 0 19.8 0 a9.9 9.9 0 1 0 -19.8 0zM663.37 248.13 a9.9 9.9 0 1 0 19.8 0 a9.9 9.9 0 1 0 -19.8 0zM577.63 198.63 a9.9 9.9 0 1 0 19.8 0 a9.9 9.9 0 1 0 -19.8 0zM577.63 99.63 a9.9 9.9 0 1 0 19.8 0 a9.9 9.9 0 1 0 -19.8 0zM663.37 347.13 a9.9 9.9 0 1 0 19.8 0 a9.9 9.9 0 1 0 -19.8 0zM749.11 396.63 a9.9 9.9 0 1 0 19.8 0 a9.9 9.9 0 1 0 -19.8 0zM749.11 495.63 a9.9 9.9 0 1 0 19.8 0 a9.9 9.9 0 1 0 -19.8 0zM663.37 545.13 a9.9 9.9 0 1 0 19.8 0 a9.9 9.9 0 1 0 -19.8 0zM577.63 495.63 a9.9 9.9 0 1 0 19.8 0 a9.9 9.9 0 1 0 -19.8 0zM577.63 396.63 a9.9 9.9 0 1 0 19.8 0 a9.9 9.9 0 1 0 -19.8 0zM577.63 792.63 a9.9 9.9 0 1 0 19.8 0 a9.9 9.9 0 1 0 -19.8 0zM663.37 842.13 a9.9 9.9 0 1 0 19.8 0 a9.9 9.9 0 1 0 -19.8 0zM663.37 941.13 a9.9 9.9 0 1 0 19.8 0 a9.9 9.9 0 1 0 -19.8 0zM577.63 990.63 a9.9 9.9 0 1 0 19.8 0 a9.9 9.9 0 1 0 -19.8 0zM491.89 941.13 a9.9 9.9 0 1 0 19.8 0 a9.9 9.9 0 1 0 -19.8 0zM491.89 842.13 a9.9 9.9 0 1 0 19.8 0 a9.9 9.9 0 1 0 -19.8 0zM577.63 1683.63 a9.9 9.9 0 1 0 19.8 0 a9.9 9.9 0 1 0 -19.8 0zM663.37 1733.13 a9.9 9.9 0 1 0 19.8 0 a9.9 9.9 0 1 0 -19.8 0zM663.37 1832.13 a9.9 9.9 0 1 0 19.8 0 a9.9 9.9 0 1 0 -19.8 0zM577.63 1881.63 a9.9 9.9 0 1 0 19.8 0 a9.9 9.9 0 1 0 -19.8 0zM491.89 1832.13 a9.9 9.9 0 1 0 19.8 0 a9.9 9.9 0 1 0 -19.8 0zM491.89 1733.13 a9.9 9.9 0 1 0 19.8 0 a9.9 9.9 0 1 0 -19.8 0zM577.63 1980.63 a9.9 9.9 0 1 0 19.8 0 a9.9 9.9 0 1 0 -19.8 0zM663.37 2030.13 a9.9 9.9 0 1 0 19.8 0 a9.9 9.9 0 1 0 -19.8 0zM663.37 2129.13 a9.9 9.9 0 1 0 19.8 0 a9.9 9.9 0 1 0 -19.8 0zM577.63 2178.63 a9.9 9.9 0 1 0 19.8 0 a9.9 9.9 0 1 0 -19.8 0zM491.89 2129.13 a9.9 9.9 0 1 0 19.8 0 a9.9 9.9 0 1 0 -19.8 0zM491.89 2030.13 a9.9 9.9 0 1 0 19.8 0 a9.9 9.9 0 1 0 -19.8 0zM577.63 2277.63 a9.9 9.9 0 1 0 19.8 0 a9.9 9.9 0 1 0 -19.8 0zM663.37 2327.13 a9.9 9.9 0 1 0 19.8 0 a9.9 9.9 0 1 0 -19.8 0zM663.37 2426.13 a9.9 9.9 0 1 0 19.8 0 a9.9 9.9 0 1 0 -19.8 0zM577.63 2475.63 a9.9 9.9 0 1 0 19.8 0 a9.9 9.9 0 1 0 -19.8 0zM834.85 347.13 a9.9 9.9 0 1 0 19.8 0 a9.9 9.9 0 1 0 -19.8 0zM920.59 396.63 a9.9 9.9 0 1 0 19.8 0 a9.9 9.9 0 1 0 -19.8 0zM920.59 495.63 a9.9 9.9 0 1 0 19.8 0 a9.9 9.9 0 1 0 -19.8 0zM834.85 545.13 a9.9 9.9 0 1 0 19.8 0 a9.9 9.9 0 1 0 -19.8 0zM834.85 941.13 a9.9 9.9 0 1 0 19.8 0 a9.9 9.9 0 1 0 -19.8 0zM920.59 990.63 a9.9 9.9 0 1 0 19.8 0 a9.9 9.9 0 1 0 -19.8 0zM920.59 1089.63 a9.9 9.9 0 1 0 19.8 0 a9.9 9.9 0 1 0 -19.8 0zM834.85 1139.13 a9.9 9.9 0 1 0 19.8 0 a9.9 9.9 0 1 0 -19.8 0zM749.11 1089.63 a9.9 9.9 0 1 0 19.8 0 a9.9 9.9 0 1 0 -19.8 0zM749.11 990.63 a9.9 9.9 0 1 0 19.8 0 a9.9 9.9 0 1 0 -19.8 0zM834.85 1535.13 a9.9 9.9 0 1 0 19.8 0 a9.9 9.9 0 1 0 -19.8 0zM920.59 1584.63 a9.9 9.9 0 1 0 19.8 0 a9.9 9.9 0 1 0 -19.8 0zM920.59 1683.63 a9.9 9.9 0 1 0 19.8 0 a9.9 9.9 0 1 0 -19.8 0zM834.85 1733.13 a9.9 9.9 0 1 0 19.8 0 a9.9 9.9 0 1 0 -19.8 0zM749.11 1683.63 a9.9 9.9 0 1 0 19.8 0 a9.9 9.9 0 1 0 -19.8 0zM749.11 1584.63 a9.9 9.9 0 1 0 19.8 0 a9.9 9.9 0 1 0 -19.8 0zM749.11 2277.63 a9.9 9.9 0 1 0 19.8 0 a9.9 9.9 0 1 0 -19.8 0zM834.85 2327.13 a9.9 9.9 0 1 0 19.8 0 a9.9 9.9 0 1 0 -19.8 0zM834.85 2426.13 a9.9 9.9 0 1 0 19.8 0 a9.9 9.9 0 1 0 -19.8 0zM749.11 2475.63 a9.9 9.9 0 1 0 19.8 0 a9.9 9.9 0 1 0 -19.8 0zM834.85 2723.13 a9.9 9.9 0 1 0 19.8 0 a9.9 9.9 0 1 0 -19.8 0zM920.59 2772.63 a9.9 9.9 0 1 0 19.8 0 a9.9 9.9 0 1 0 -19.8 0zM920.59 2871.63 a9.9 9.9 0 1 0 19.8 0 a9.9 9.9 0 1 0 -19.8 0zM834.85 2921.13 a9.9 9.9 0 1 0 19.8 0 a9.9 9.9 0 1 0 -19.8 0zM749.11 2871.63 a9.9 9.9 0 1 0 19.8 0 a9.9 9.9 0 1 0 -19.8 0zM749.11 2772.63 a9.9 9.9 0 1 0 19.8 0 a9.9 9.9 0 1 0 -19.8 0zM920.59 1386.63 a9.9 9.9 0 1 0 19.8 0 a9.9 9.9 0 1 0 -19.8 0zM1006.33 1436.13 a9.9 9.9 0 1 0 19.8 0 a9.9 9.9 0 1 0 -19.8 0zM1006.33 1535.13 a9.9 9.9 0 1 0 19.8 0 a9.9 9.9 0 1 0 -19.8 0zM834.85 1436.13 a9.9 9.9 0 1 0 19.8 0 a9.9 9.9 0 1 0 -19.8 0zM1006.33 2723.13 a9.9 9.9 0 1 0 19.8 0 a9.9 9.9 0 1 0 -19.8 0zM1092.07 2772.63 a9.9 9.9 0 1 0 19.8 0 a9.9 9.9 0 1 0 -19.8 0zM1092.07 2871.63 a9.9 9.9 0 1 0 19.8 0 a9.9 9.9 0 1 0 -19.8 0zM1006.33 2921.13 a9.9 9.9 0 1 0 19.8 0 a9.9 9.9 0 1 0 -19.8 0zM1177.81 50.13 a9.9 9.9 0 1 0 19.8 0 a9.9 9.9 0 1 0 -19.8 0zM1263.55 99.63 a9.9 9.9 0 1 0 19.8 0 a9.9 9.9 0 1 0 -19.8 0zM1263.55 198.63 a9.9 9.9 0 1 0 19.8 0 a9.9 9.9 0 1 0 -19.8 0zM1177.81 248.13 a9.9 9.9 0 1 0 19.8 0 a9.9 9.9 0 1 0 -19.8 0zM1092.07 198.63 a9.9 9.9 0 1 0 19.8 0 a9.9 9.9 0 1 0 -19.8 0zM1092.07 99.63 a9.9 9.9 0 1 0 19.8 0 a9.9 9.9 0 1 0 -19.8 0zM1177.81 644.13 a9.9 9.9 0 1 0 19.8 0 a9.9 9.9 0 1 0 -19.8 0zM1263.55 693.63 a9.9 9.9 0 1 0 19.8 0 a9.9 9.9 0 1 0 -19.8 0zM1263.55 792.63 a9.9 9.9 0 1 0 19.8 0 a9.9 9.9 0 1 0 -19.8 0zM1177.81 842.13 a9.9 9.9 0 1 0 19.8 0 a9.9 9.9 0 1 0 -19.8 0zM1092.07 792.63 a9.9 9.9 0 1 0 19.8 0 a9.9 9.9 0 1 0 -19.8 0zM1092.07 693.63 a9.9 9.9 0 1 0 19.8 0 a9.9 9.9 0 1 0 -19.8 0zM1092.07 1980.63 a9.9 9.9 0 1 0 19.8 0 a9.9 9.9 0 1 0 -19.8 0zM1177.81 2030.13 a9.9 9.9 0 1 0 19.8 0 a9.9 9.9 0 1 0 -19.8 0zM1177.81 2129.13 a9.9 9.9 0 1 0 19.8 0 a9.9 9.9 0 1 0 -19.8 0zM1092.07 2178.63 a9.9 9.9 0 1 0 19.8 0 a9.9 9.9 0 1 0 -19.8 0zM1006.33 2129.13 a9.9 9.9 0 1 0 19.8 0 a9.9 9.9 0 1 0 -19.8 0zM1006.33 2030.13 a9.9 9.9 0 1 0 19.8 0 a9.9 9.9 0 1 0 -19.8 0zM1263.55 2178.63 a9.9 9.9 0 1 0 19.8 0 a9.9 9.9 0 1 0 -19.8 0zM1263.55 2277.63 a9.9 9.9 0 1 0 19.8 0 a9.9 9.9 0 1 0 -19.8 0zM1177.81 2327.13 a9.9 9.9 0 1 0 19.8 0 a9.9 9.9 0 1 0 -19.8 0zM1092.07 2277.63 a9.9 9.9 0 1 0 19.8 0 a9.9 9.9 0 1 0 -19.8 0zM1177.81 2426.13 a9.9 9.9 0 1 0 19.8 0 a9.9 9.9 0 1 0 -19.8 0zM1092.07 2475.63 a9.9 9.9 0 1 0 19.8 0 a9.9 9.9 0 1 0 -19.8 0zM1006.33 2426.13 a9.9 9.9 0 1 0 19.8 0 a9.9 9.9 0 1 0 -19.8 0zM1006.33 2327.13 a9.9 9.9 0 1 0 19.8 0 a9.9 9.9 0 1 0 -19.8 0z" fill="#03305d"></path><path d="M62.02 53.15L93.2 71.15L93.2 107.15L62.02 125.15L30.84 107.15L30.84 71.15zM62.02 485.15L93.2 503.15L93.2 539.15L62.02 557.15L30.84 539.15L30.84 503.15zM30.84 1079.15L62.02 1097.15L62.02 1133.15L30.84 1151.15L-0.34 1133.15L-0.34 1097.15zM30.84 1295.15L62.02 1313.15L62.02 1349.15L30.84 1367.15L-0.34 1349.15L-0.34 1313.15zM62.02 2537.15L93.2 2555.15L93.2 2591.15L62.02 2609.15L30.84 2591.15L30.84 2555.15zM30.84 2807.15L62.02 2825.15L62.02 2861.15L30.84 2879.15L-0.34 2861.15L-0.34 2825.15zM124.37 161.15L155.55 179.15L155.55 215.15L124.37 233.15L93.2 215.15L93.2 179.15zM93.2 539.15L124.37 557.15L124.37 593.15L93.2 611.15L62.02 593.15L62.02 557.15zM93.2 755.15L124.37 773.15L124.37 809.15L93.2 827.15L62.02 809.15L62.02 773.15zM93.2 1079.15L124.37 1097.15L124.37 1133.15L93.2 1151.15L62.02 1133.15L62.02 1097.15zM93.2 1727.15L124.37 1745.15L124.37 1781.15L93.2 1799.15L62.02 1781.15L62.02 1745.15zM124.37 2213.15L155.55 2231.15L155.55 2267.15L124.37 2285.15L93.2 2267.15L93.2 2231.15zM155.55 107.15L186.73 125.15L186.73 161.15L155.55 179.15L124.37 161.15L124.37 125.15zM155.55 431.15L186.73 449.15L186.73 485.15L155.55 503.15L124.37 485.15L124.37 449.15zM186.73 1025.15L217.91 1043.15L217.91 1079.15L186.73 1097.15L155.55 1079.15L155.55 1043.15zM186.73 1889.15L217.91 1907.15L217.91 1943.15L186.73 1961.15L155.55 1943.15L155.55 1907.15zM155.55 1943.15L186.73 1961.15L186.73 1997.15L155.55 2015.15L124.37 1997.15L124.37 1961.15zM155.55 2267.15L186.73 2285.15L186.73 2321.15L155.55 2339.15L124.37 2321.15L124.37 2285.15zM155.55 2483.15L186.73 2501.15L186.73 2537.15L155.55 2555.15L124.37 2537.15L124.37 2501.15zM217.91 755.15L249.08 773.15L249.08 809.15L217.91 827.15L186.73 809.15L186.73 773.15zM217.91 863.15L249.08 881.15L249.08 917.15L217.91 935.15L186.73 917.15L186.73 881.15zM217.91 971.15L249.08 989.15L249.08 1025.15L217.91 1043.15L186.73 1025.15L186.73 989.15zM249.08 1781.15L280.26 1799.15L280.26 1835.15L249.08 1853.15L217.91 1835.15L217.91 1799.15zM217.91 1943.15L249.08 1961.15L249.08 1997.15L217.91 2015.15L186.73 1997.15L186.73 1961.15zM249.08 2321.15L280.26 2339.15L280.26 2375.15L249.08 2393.15L217.91 2375.15L217.91 2339.15zM249.08 2537.15L280.26 2555.15L280.26 2591.15L249.08 2609.15L217.91 2591.15L217.91 2555.15zM217.91 2699.15L249.08 2717.15L249.08 2753.15L217.91 2771.15L186.73 2753.15L186.73 2717.15zM311.44 269.15L342.62 287.15L342.62 323.15L311.44 341.15L280.26 323.15L280.26 287.15zM280.26 323.15L311.44 341.15L311.44 377.15L280.26 395.15L249.08 377.15L249.08 341.15zM311.44 809.15L342.62 827.15L342.62 863.15L311.44 881.15L280.26 863.15L280.26 827.15zM311.44 917.15L342.62 935.15L342.62 971.15L311.44 989.15L280.26 971.15L280.26 935.15zM311.44 1133.15L342.62 1151.15L342.62 1187.15L311.44 1205.15L280.26 1187.15L280.26 1151.15zM280.26 1187.15L311.44 1205.15L311.44 1241.15L280.26 1259.15L249.08 1241.15L249.08 1205.15zM280.26 1727.15L311.44 1745.15L311.44 1781.15L280.26 1799.15L249.08 1781.15L249.08 1745.15zM311.44 1781.15L342.62 1799.15L342.62 1835.15L311.44 1853.15L280.26 1835.15L280.26 1799.15zM280.26 2051.15L311.44 2069.15L311.44 2105.15L280.26 2123.15L249.08 2105.15L249.08 2069.15zM311.44 2321.15L342.62 2339.15L342.62 2375.15L311.44 2393.15L280.26 2375.15L280.26 2339.15zM311.44 2537.15L342.62 2555.15L342.62 2591.15L311.44 2609.15L280.26 2591.15L280.26 2555.15zM373.8 161.15L404.97 179.15L404.97 215.15L373.8 233.15L342.62 215.15L342.62 179.15zM373.8 485.15L404.97 503.15L404.97 539.15L373.8 557.15L342.62 539.15L342.62 503.15zM342.62 539.15L373.8 557.15L373.8 593.15L342.62 611.15L311.44 593.15L311.44 557.15zM373.8 1025.15L404.97 1043.15L404.97 1079.15L373.8 1097.15L342.62 1079.15L342.62 1043.15zM342.62 1187.15L373.8 1205.15L373.8 1241.15L342.62 1259.15L311.44 1241.15L311.44 1205.15zM373.8 1997.15L404.97 2015.15L404.97 2051.15L373.8 2069.15L342.62 2051.15L342.62 2015.15zM342.62 2051.15L373.8 2069.15L373.8 2105.15L342.62 2123.15L311.44 2105.15L311.44 2069.15zM342.62 2591.15L373.8 2609.15L373.8 2645.15L342.62 2663.15L311.44 2645.15L311.44 2609.15zM404.97 107.15L436.15 125.15L436.15 161.15L404.97 179.15L373.8 161.15L373.8 125.15zM404.97 215.15L436.15 233.15L436.15 269.15L404.97 287.15L373.8 269.15L373.8 233.15zM436.15 917.15L467.33 935.15L467.33 971.15L436.15 989.15L404.97 971.15L404.97 935.15zM436.15 1025.15L467.33 1043.15L467.33 1079.15L436.15 1097.15L404.97 1079.15L404.97 1043.15zM404.97 1079.15L436.15 1097.15L436.15 1133.15L404.97 1151.15L373.8 1133.15L373.8 1097.15zM404.97 1187.15L436.15 1205.15L436.15 1241.15L404.97 1259.15L373.8 1241.15L373.8 1205.15zM404.97 1727.15L436.15 1745.15L436.15 1781.15L404.97 1799.15L373.8 1781.15L373.8 1745.15zM436.15 2213.15L467.33 2231.15L467.33 2267.15L436.15 2285.15L404.97 2267.15L404.97 2231.15zM404.97 2267.15L436.15 2285.15L436.15 2321.15L404.97 2339.15L373.8 2321.15L373.8 2285.15zM498.51 701.15L529.68 719.15L529.68 755.15L498.51 773.15L467.33 755.15L467.33 719.15zM498.51 917.15L529.68 935.15L529.68 971.15L498.51 989.15L467.33 971.15L467.33 935.15zM467.33 1079.15L498.51 1097.15L498.51 1133.15L467.33 1151.15L436.15 1133.15L436.15 1097.15zM467.33 1295.15L498.51 1313.15L498.51 1349.15L467.33 1367.15L436.15 1349.15L436.15 1313.15zM467.33 1403.15L498.51 1421.15L498.51 1457.15L467.33 1475.15L436.15 1457.15L436.15 1421.15zM498.51 1565.15L529.68 1583.15L529.68 1619.15L498.51 1637.15L467.33 1619.15L467.33 1583.15zM467.33 1727.15L498.51 1745.15L498.51 1781.15L467.33 1799.15L436.15 1781.15L436.15 1745.15zM498.51 2537.15L529.68 2555.15L529.68 2591.15L498.51 2609.15L467.33 2591.15L467.33 2555.15zM529.68 107.15L560.86 125.15L560.86 161.15L529.68 179.15L498.51 161.15L498.51 125.15zM529.68 647.15L560.86 665.15L560.86 701.15L529.68 719.15L498.51 701.15L498.51 665.15zM560.86 809.15L592.04 827.15L592.04 863.15L560.86 881.15L529.68 863.15L529.68 827.15zM529.68 863.15L560.86 881.15L560.86 917.15L529.68 935.15L498.51 917.15L498.51 881.15zM560.86 917.15L592.04 935.15L592.04 971.15L560.86 989.15L529.68 971.15L529.68 935.15zM560.86 1133.15L592.04 1151.15L592.04 1187.15L560.86 1205.15L529.68 1187.15L529.68 1151.15zM529.68 1295.15L560.86 1313.15L560.86 1349.15L529.68 1367.15L498.51 1349.15L498.51 1313.15zM529.68 1403.15L560.86 1421.15L560.86 1457.15L529.68 1475.15L498.51 1457.15L498.51 1421.15zM529.68 1619.15L560.86 1637.15L560.86 1673.15L529.68 1691.15L498.51 1673.15L498.51 1637.15zM560.86 2213.15L592.04 2231.15L592.04 2267.15L560.86 2285.15L529.68 2267.15L529.68 2231.15zM560.86 2321.15L592.04 2339.15L592.04 2375.15L560.86 2393.15L529.68 2375.15L529.68 2339.15zM529.68 2591.15L560.86 2609.15L560.86 2645.15L529.68 2663.15L498.51 2645.15L498.51 2609.15zM592.04 107.15L623.22 125.15L623.22 161.15L592.04 179.15L560.86 161.15L560.86 125.15zM623.22 269.15L654.4 287.15L654.4 323.15L623.22 341.15L592.04 323.15L592.04 287.15zM623.22 485.15L654.4 503.15L654.4 539.15L623.22 557.15L592.04 539.15L592.04 503.15zM592.04 1187.15L623.22 1205.15L623.22 1241.15L592.04 1259.15L560.86 1241.15L560.86 1205.15zM592.04 1295.15L623.22 1313.15L623.22 1349.15L592.04 1367.15L560.86 1349.15L560.86 1313.15zM623.22 1565.15L654.4 1583.15L654.4 1619.15L623.22 1637.15L592.04 1619.15L592.04 1583.15zM592.04 1727.15L623.22 1745.15L623.22 1781.15L592.04 1799.15L560.86 1781.15L560.86 1745.15zM592.04 2051.15L623.22 2069.15L623.22 2105.15L592.04 2123.15L560.86 2105.15L560.86 2069.15zM592.04 2159.15L623.22 2177.15L623.22 2213.15L592.04 2231.15L560.86 2213.15L560.86 2177.15zM592.04 2375.15L623.22 2393.15L623.22 2429.15L592.04 2447.15L560.86 2429.15L560.86 2393.15zM623.22 2753.15L654.4 2771.15L654.4 2807.15L623.22 2825.15L592.04 2807.15L592.04 2771.15zM685.57 377.15L716.75 395.15L716.75 431.15L685.57 449.15L654.4 431.15L654.4 395.15zM654.4 647.15L685.57 665.15L685.57 701.15L654.4 719.15L623.22 701.15L623.22 665.15zM685.57 917.15L716.75 935.15L716.75 971.15L685.57 989.15L654.4 971.15L654.4 935.15zM654.4 1619.15L685.57 1637.15L685.57 1673.15L654.4 1691.15L623.22 1673.15L623.22 1637.15zM685.57 2105.15L716.75 2123.15L716.75 2159.15L685.57 2177.15L654.4 2159.15L654.4 2123.15zM685.57 2537.15L716.75 2555.15L716.75 2591.15L685.57 2609.15L654.4 2591.15L654.4 2555.15zM747.93 701.15L779.11 719.15L779.11 755.15L747.93 773.15L716.75 755.15L716.75 719.15zM716.75 863.15L747.93 881.15L747.93 917.15L716.75 935.15L685.57 917.15L685.57 881.15zM716.75 971.15L747.93 989.15L747.93 1025.15L716.75 1043.15L685.57 1025.15L685.57 989.15zM747.93 1025.15L779.11 1043.15L779.11 1079.15L747.93 1097.15L716.75 1079.15L716.75 1043.15zM716.75 1187.15L747.93 1205.15L747.93 1241.15L716.75 1259.15L685.57 1241.15L685.57 1205.15zM747.93 1457.15L779.11 1475.15L779.11 1511.15L747.93 1529.15L716.75 1511.15L716.75 1475.15zM747.93 1889.15L779.11 1907.15L779.11 1943.15L747.93 1961.15L716.75 1943.15L716.75 1907.15zM747.93 2213.15L779.11 2231.15L779.11 2267.15L747.93 2285.15L716.75 2267.15L716.75 2231.15zM747.93 2429.15L779.11 2447.15L779.11 2483.15L747.93 2501.15L716.75 2483.15L716.75 2447.15zM810.29 53.15L841.46 71.15L841.46 107.15L810.29 125.15L779.11 107.15L779.11 71.15zM779.11 215.15L810.29 233.15L810.29 269.15L779.11 287.15L747.93 269.15L747.93 233.15zM779.11 647.15L810.29 665.15L810.29 701.15L779.11 719.15L747.93 701.15L747.93 665.15zM779.11 863.15L810.29 881.15L810.29 917.15L779.11 935.15L747.93 917.15L747.93 881.15zM779.11 1187.15L810.29 1205.15L810.29 1241.15L779.11 1259.15L747.93 1241.15L747.93 1205.15zM810.29 1241.15L841.46 1259.15L841.46 1295.15L810.29 1313.15L779.11 1295.15L779.11 1259.15zM810.29 1349.15L841.46 1367.15L841.46 1403.15L810.29 1421.15L779.11 1403.15L779.11 1367.15zM779.11 1403.15L810.29 1421.15L810.29 1457.15L779.11 1475.15L747.93 1457.15L747.93 1421.15zM810.29 1997.15L841.46 2015.15L841.46 2051.15L810.29 2069.15L779.11 2051.15L779.11 2015.15zM779.11 2051.15L810.29 2069.15L810.29 2105.15L779.11 2123.15L747.93 2105.15L747.93 2069.15zM779.11 2375.15L810.29 2393.15L810.29 2429.15L779.11 2447.15L747.93 2429.15L747.93 2393.15zM779.11 2483.15L810.29 2501.15L810.29 2537.15L779.11 2555.15L747.93 2537.15L747.93 2501.15zM872.64 161.15L903.82 179.15L903.82 215.15L872.64 233.15L841.46 215.15L841.46 179.15zM872.64 377.15L903.82 395.15L903.82 431.15L872.64 449.15L841.46 431.15L841.46 395.15zM841.46 431.15L872.64 449.15L872.64 485.15L841.46 503.15L810.28 485.15L810.28 449.15zM841.46 539.15L872.64 557.15L872.64 593.15L841.46 611.15L810.28 593.15L810.28 557.15zM872.64 701.15L903.82 719.15L903.82 755.15L872.64 773.15L841.46 755.15L841.46 719.15zM872.64 1565.15L903.82 1583.15L903.82 1619.15L872.64 1637.15L841.46 1619.15L841.46 1583.15zM872.64 1889.15L903.82 1907.15L903.82 1943.15L872.64 1961.15L841.46 1943.15L841.46 1907.15zM841.46 2591.15L872.64 2609.15L872.64 2645.15L841.46 2663.15L810.28 2645.15L810.28 2609.15zM935 53.15L966.17 71.15L966.17 107.15L935 125.15L903.82 107.15L903.82 71.15zM935 161.15L966.17 179.15L966.17 215.15L935 233.15L903.82 215.15L903.82 179.15zM935 377.15L966.17 395.15L966.17 431.15L935 449.15L903.82 431.15L903.82 395.15zM903.82 431.15L935 449.15L935 485.15L903.82 503.15L872.64 485.15L872.64 449.15zM935 593.15L966.17 611.15L966.17 647.15L935 665.15L903.82 647.15L903.82 611.15zM935 1025.15L966.17 1043.15L966.17 1079.15L935 1097.15L903.82 1079.15L903.82 1043.15zM903.82 1295.15L935 1313.15L935 1349.15L903.82 1367.15L872.64 1349.15L872.64 1313.15zM903.82 1619.15L935 1637.15L935 1673.15L903.82 1691.15L872.64 1673.15L872.64 1637.15zM903.82 1727.15L935 1745.15L935 1781.15L903.82 1799.15L872.64 1781.15L872.64 1745.15zM935 1889.15L966.17 1907.15L966.17 1943.15L935 1961.15L903.82 1943.15L903.82 1907.15zM903.82 2591.15L935 2609.15L935 2645.15L903.82 2663.15L872.64 2645.15L872.64 2609.15zM935 2645.15L966.17 2663.15L966.17 2699.15L935 2717.15L903.82 2699.15L903.82 2663.15zM997.35 485.15L1028.53 503.15L1028.53 539.15L997.35 557.15L966.17 539.15L966.17 503.15zM966.17 755.15L997.35 773.15L997.35 809.15L966.17 827.15L935 809.15L935 773.15zM966.17 863.15L997.35 881.15L997.35 917.15L966.17 935.15L935 917.15L935 881.15zM997.35 1673.15L1028.53 1691.15L1028.53 1727.15L997.35 1745.15L966.17 1727.15L966.17 1691.15zM997.35 1781.15L1028.53 1799.15L1028.53 1835.15L997.35 1853.15L966.17 1835.15L966.17 1799.15zM966.17 1835.15L997.35 1853.15L997.35 1889.15L966.17 1907.15L935 1889.15L935 1853.15zM966.17 2267.15L997.35 2285.15L997.35 2321.15L966.17 2339.15L935 2321.15L935 2285.15zM997.35 2537.15L1028.53 2555.15L1028.53 2591.15L997.35 2609.15L966.17 2591.15L966.17 2555.15zM997.35 2753.15L1028.53 2771.15L1028.53 2807.15L997.35 2825.15L966.17 2807.15L966.17 2771.15zM1028.53 -0.85L1059.71 17.15L1059.71 53.15L1028.53 71.15L997.35 53.15L997.35 17.15zM1028.53 431.15L1059.71 449.15L1059.71 485.15L1028.53 503.15L997.35 485.15L997.35 449.15zM1028.53 755.15L1059.71 773.15L1059.71 809.15L1028.53 827.15L997.35 809.15L997.35 773.15zM1059.71 1133.15L1090.89 1151.15L1090.89 1187.15L1059.71 1205.15L1028.53 1187.15L1028.53 1151.15zM1028.53 1727.15L1059.71 1745.15L1059.71 1781.15L1028.53 1799.15L997.35 1781.15L997.35 1745.15zM1028.53 1835.15L1059.71 1853.15L1059.71 1889.15L1028.53 1907.15L997.35 1889.15L997.35 1853.15zM1059.71 2105.15L1090.89 2123.15L1090.89 2159.15L1059.71 2177.15L1028.53 2159.15L1028.53 2123.15zM1028.53 2159.15L1059.71 2177.15L1059.71 2213.15L1028.53 2231.15L997.35 2213.15L997.35 2177.15zM1028.53 2375.15L1059.71 2393.15L1059.71 2429.15L1028.53 2447.15L997.35 2429.15L997.35 2393.15zM1059.71 2645.15L1090.89 2663.15L1090.89 2699.15L1059.71 2717.15L1028.53 2699.15L1028.53 2663.15zM1090.89 -0.85L1122.06 17.15L1122.06 53.15L1090.89 71.15L1059.71 53.15L1059.71 17.15zM1090.89 107.15L1122.06 125.15L1122.06 161.15L1090.89 179.15L1059.71 161.15L1059.71 125.15zM1090.89 323.15L1122.06 341.15L1122.06 377.15L1090.89 395.15L1059.71 377.15L1059.71 341.15zM1122.06 1565.15L1153.24 1583.15L1153.24 1619.15L1122.06 1637.15L1090.89 1619.15L1090.89 1583.15zM1090.89 1835.15L1122.06 1853.15L1122.06 1889.15L1090.89 1907.15L1059.71 1889.15L1059.71 1853.15zM1090.89 2159.15L1122.06 2177.15L1122.06 2213.15L1090.89 2231.15L1059.71 2213.15L1059.71 2177.15zM1122.06 2213.15L1153.24 2231.15L1153.24 2267.15L1122.06 2285.15L1090.89 2267.15L1090.89 2231.15zM1090.89 2267.15L1122.06 2285.15L1122.06 2321.15L1090.89 2339.15L1059.71 2321.15L1059.71 2285.15zM1122.06 2537.15L1153.24 2555.15L1153.24 2591.15L1122.06 2609.15L1090.89 2591.15L1090.89 2555.15z" stroke="rgba(6, 80, 156, 0.93)" stroke-width="2"></path></g><defs><mask id="SvgjsMask1354"><rect width="1080" height="2840" fill="#ffffff"></rect></mask><linearGradient x1="-40.74%" y1="15.49%" x2="140.74%" y2="84.51%" gradientUnits="userSpaceOnUse" id="SvgjsLinearGradient1355"><stop stop-color="#0e2a47" offset="0"></stop><stop stop-color="rgba(27, 27, 27, 1)" offset="0.93"></stop><stop stop-color="#00459e" offset="1"></stop></linearGradient></defs></svg>